<svg xmlns="http://www.w3.org/2000/svg" xmlns:xlink="http://www.w3.org/1999/xlink" width="16" height="16" version="1.1" viewBox="0 0 16 16"><title>user-meh-yellow-newcomer</title><desc>Created with Sketch.</desc><g id="Icons" fill="none" fill-rule="evenodd" stroke="none" stroke-width="1"><g id="user-meh-yellow-newcomer"><polygon id="Star-2-Copy-2" fill="#FC3" points="8 14.186 5.528 15.717 4.428 13.025 1.528 12.811 2.22 9.986 0 8.108 2.22 6.231 1.528 3.406 4.428 3.192 5.528 .5 8 2.031 10.472 .5 11.572 3.192 14.472 3.406 13.78 6.231 16 8.108 13.78 9.986 14.472 12.811 11.572 13.025 10.472 15.717"/><g id="Group" fill="#544712" transform="translate(3.500000, 3.500000)"><path id="Page-1-Copy" d="M6.92031587,0.71875 C7.590674,0.71875 8.06950124,1.29334268 8.06950124,1.86793537 C8.06950124,2.44252805 7.49490855,3.01712074 6.92031587,3.01712074 C6.34572318,3.01712074 5.7711305,2.44252805 5.7711305,1.86793537 C5.7711305,1.29334268 6.24995774,0.71875 6.92031587,0.71875 Z M2.1320435,0.71875 C2.80240163,0.71875 3.28122887,1.29334268 3.28122887,1.86793537 C3.28122887,2.44252805 2.80240163,3.11288618 2.1320435,3.11288618 C1.46168537,3.11288618 0.982858131,2.5382935 0.982858131,1.96370082 C0.982858131,1.38910813 1.46168537,0.71875 2.1320435,0.71875 Z"/></g><path id="Path-2" fill="#544712" fill-rule="nonzero" d="M8.33387153,12.6712541 C8.35403129,12.6122411 8.40567258,12.4923806 8.49371464,12.332251 C8.64406662,12.058793 8.84072481,11.7842759 9.08804617,11.5283081 C9.79596947,10.7956356 10.7679659,10.3568962 12.0714158,10.3568962 C12.3080412,10.3568962 12.4998639,10.1650735 12.4998639,9.9284481 C12.4998639,9.69182275 12.3080412,9.5 12.0714158,9.5 C10.5282132,9.5 9.33659251,10.0378733 8.47181042,10.9328884 C7.95077581,11.4721386 7.65293457,12.0138479 7.52298572,12.3942427 C7.44649115,12.6181626 7.56600301,12.8616967 7.78992294,12.9381913 C8.01384287,13.0146859 8.25737695,12.895174 8.33387153,12.6712541 Z"/></g></g></svg>